<?xml version="1.0" encoding="UTF-8"?>
<svg version="1.1" xmlns="http://www.w3.org/2000/svg" width="13924" height="6436">
<path d="M0 0 C500.28 0 1000.56 0 1516 0 C1516.33 399.96 1516.66 799.92 1517 1212 C1567.33144531 1124.50875 1617.66289063 1037.0175 1669.51953125 946.875 C1740.00467712 840.82533323 1740.00467712 840.82533323 1777.95758887 790.77562818 C1779.19506978 789.14141628 1780.43247382 787.50714617 1781.66980928 785.87282414 C1782.29038239 785.05339454 1782.9109555 784.23396494 1783.55033386 783.38970414 C1786.1414974 779.96548152 1788.72752904 776.53739735 1791.31380843 773.10948518 C1831.90305918 719.32220606 1873.61901537 666.49286939 1916.13622961 614.21925013 C1921.31850747 607.84524317 1926.48523486 601.45886447 1931.64444238 595.06617486 C2006.7425321 502.04062831 2085.26414785 412.80683865 2246.7421875 269.8671875 C2248.22505077 268.63532725 2248.22505077 268.63532725 2249.73787086 267.37858093 C2312.44597166 215.35812525 2377.77108577 167.40777783 3519.9453125 -80.5546875 C3521.05785058 -80.58632829 3522.17038866 -80.61796908 3523.31664001 -80.65056869 C3635.40220364 -83.8322712 3747.50751641 -85.58121022 4376.93009879 -76.57092422 C4394.45950275 -76.0708455 4411.98915944 -75.58072785 4429.51905447 -75.09817886 C4544.84464419 -71.92177942 4660.16040665 -68.48010108 5730.09191349 -13.89591721 C5732.61513918 -13.72198467 5735.13837278 -13.54816722 5737.66160863 -13.37438201 C5770.97506659 -11.07970564 5804.2868828 -8.76543464 5837.59262446 -6.36115349 C5850.35708094 -5.44012651 5863.12237233 -4.5309623 5875.88837337 -3.63158989 C5877.15069947 -3.54263509 5878.41302556 -3.45368028 5879.71360396 -3.36202988 C5918.93557873 -0.60761441 5958.07659118 1.23924035 5997.39048036 1.78413846 C6075.59573575 2.96366322 6154.2073569 10.1502801 6795.43127441 141.17175293 C6798.09719898 142.03134036 6800.76467975 142.88593934 6803.43261719 143.73925781 C6832.14558485 152.92590796 6860.62891524 162.67035697 6888.98297119 172.9107666 C6891.98059657 173.99299481 6894.97924404 175.07235225 6897.97802734 176.15136719 C6945.03341159 193.10435794 6991.57741918 211.3637918 7037.58905029 230.9732666 C7039.97786769 231.99057468 7042.36787497 233.00503239 7044.75830078 234.01855469 C7063.97217904 242.16756564 7083.09015979 250.50620398 7102.09417725 259.13531494 C7104.06551509 260.02972465 7106.03778753 260.92204689 7108.01025391 261.81396484 C7118.36136869 266.49691221 7128.68788127 271.23183179 7139 276 C7139.70467407 276.32516602 7140.40934814 276.65033203 7141.13537598 276.98535156 C7166.18779433 288.55227094 7190.88470661 300.83796776 7215.57042313 313.16249847 C7218.09432688 314.4221909 7220.61886492 315.68060428 7223.14352417 316.93878174 C7240.57556255 325.62994362 7257.9166967 334.40071583 7274.9440918 343.86679077 C7279.39234156 346.31865009 7283.91649754 348.62370905 7288.4375 350.9375 C7297.22324032 355.47869888 7305.85836072 360.24435382 7314.44726562 365.14648438 C7320.90071003 368.82727286 7327.40016009 372.40819253 7333.9375 375.9375 C7343.68350723 381.21509923 7353.25835225 386.7590571 7362.8125 392.375 C7368.02757459 395.43918723 7373.26901582 398.454938 7378.51806641 401.46044922 C7391.27895988 408.77304462 7403.87584892 416.32615796 7416.42578125 423.9921875 C7422.11683394 427.46845506 7427.83414005 430.89820435 7433.5625 434.3125 C7442.35797459 439.56843004 7451.02492312 445.01467885 7459.66748047 450.51757812 C7462.71256319 452.4528662 7465.76583712 454.37500411 7468.8190918 456.29736328 C7485.72311821 466.94627352 7502.62021539 477.61556348 7519.18798828 488.78271484 C7521.12993038 490.08728548 7523.07789581 491.3824552 7525.02734375 492.67578125 C7538.08995566 501.34497107 7551.05203537 510.16073769 7564 519 C7564.79245117 519.54076172 7565.58490234 520.08152344 7566.40136719 520.63867188 C7575.95429375 527.16325573 7585.42426367 533.80016133 7594.86328125 540.48828125 C7596.97928005 541.98534073 7599.09842052 543.47783187 7601.21875 544.96875 C7623.45619149 560.61044938 7645.38252384 576.65840023 7666.98046875 593.171875 C7671.46707158 596.59984121 7675.97725254 599.99492841 7680.5 603.375 C7687.38112356 608.5224113 7694.20899609 613.73399346 7701 619 C7702.03278076 619.80074951 7702.03278076 619.80074951 7703.08642578 620.61767578 C7708.39692282 624.73746799 7713.70014856 628.86652513 7719 633 C7719.63083496 633.49145508 7720.26166992 633.98291016 7720.91162109 634.48925781 C7728.35782838 640.29408589 7735.72249878 646.18987184 7743.03515625 652.16210938 C7747.35636534 655.68510673 7751.72272569 659.14160863 7756.125 662.5625 C7761.53791796 666.77758416 7766.77195824 671.16928796 7771.95922852 675.65820312 C7776.31639117 679.42775236 7780.74992482 683.09061443 7785.22265625 686.72265625 C7788.90475925 689.74187714 7792.53062893 692.82501945 7796.15771484 695.90991211 C7799.63262479 698.85971308 7803.14462023 701.75671652 7806.6875 704.625 C7811.08370366 708.20049415 7815.28985859 711.94091209 7819.4765625 715.7578125 C7822.05082358 718.04515904 7824.69289489 720.21548271 7827.375 722.375 C7831.93181584 726.05896098 7836.24242369 729.9327837 7840.52783203 733.92236328 C7843.67345501 736.83340428 7846.89808075 739.58050742 7850.25 742.25 C7855.8192148 746.72800435 7860.99183379 751.58383566 7866.16699219 756.50878906 C7870.07870063 760.22737538 7874.05963293 763.83714338 7878.13598633 767.37451172 C7880.71513406 769.62362313 7883.23267361 771.93178417 7885.75 774.25 C7886.78772984 775.20446033 7887.82549116 776.15888644 7888.86328125 777.11328125 C7889.64372803 777.83185303 7889.64372803 777.83185303 7890.43994141 778.56494141 C7892.44267958 780.40720979 7894.4497686 782.2446956 7896.45703125 784.08203125 C7930.40782219 815.16626465 7930.40782219 815.16626465 7940.59375 825.65625 C7942.56356923 827.5749051 7944.56299649 829.36238049 7946.64732361 831.15150452 C7950.95439829 834.90985547 7955.01409499 838.87301473 7959.04907227 842.91967773 C7960.18975662 844.05773361 7960.18975662 844.05773361 7961.35348511 845.21878052 C7963.84363094 847.70455808 7966.3301396 850.1939367 7968.81640625 852.68359375 C7970.55925655 854.42576956 7972.30225519 856.16779698 7974.0453949 857.90968323 C7977.68903592 861.55185408 7981.33087278 865.19581679 7984.97143555 868.84106445 C7989.62372313 873.49904888 7994.28048604 878.15252914 7998.93861485 882.80467129 C8002.53590726 886.39833971 8006.13080159 889.99439946 8009.72498894 893.59117317 C8011.44055856 895.30740697 8013.1568633 897.02290628 8014.87393379 898.73763847 C8017.27850001 901.13964792 8019.67980827 903.54486946 8022.08032227 905.95092773 C8022.78129532 906.64987656 8023.48226837 907.34882538 8024.20448303 908.06895447 C8028.11350805 911.99461061 8031.84395927 916.01983831 8035.4481039 920.22779942 C8037.83457932 922.95305476 8040.40749735 925.47278238 8043 928 C8046.96663765 931.91253596 8050.74585151 935.89561196 8054.359375 940.140625 C8056.71482673 942.81013696 8059.25228689 945.2780701 8061.8125 947.75 C8063.71273884 949.70453138 8065.50252246 951.7005086 8067.2890625 953.7578125 C8070.88333567 957.89591816 8074.60864316 961.89381337 8078.375 965.875 C8083.99836086 971.84628301 8089.5439605 977.87502079 8095 984 C8096.49912796 985.66745109 8097.99914535 987.33410291 8099.5 989 C8100.2425 989.82628906 8100.985 990.65257812 8101.75 991.50390625 C8103.24482689 993.16222983 8104.7448058 994.81592441 8106.25 996.46484375 C8110.0641515 1000.65643732 8113.76014329 1004.89605652 8117.3125 1009.3125 C8120.72420484 1013.53396375 8124.29297628 1017.54094067 8128 1021.5 C8132.49956712 1026.3054867 8136.73103036 1031.25160717 8140.85546875 1036.38671875 C8142.99874956 1038.99847623 8145.2238033 1041.50365302 8147.5 1044 C8151.34191939 1048.22013944 8154.96115221 1052.58027184 8158.55078125 1057.015625 C8161.31811006 1060.38761736 8164.1515737 1063.69656069 8167 1067 C8172.09988944 1072.92097646 8177.07749067 1078.93041051 8182 1085 C8183.4159632 1086.72974276 8184.8326473 1088.45889561 8186.25 1090.1875 C8187.83386697 1092.12456379 8189.41714358 1094.06211036 8191 1096 C8191.49016602 1096.59973633 8191.98033203 1097.19947266 8192.48535156 1097.81738281 C8198.67466964 1105.39481659 8204.81941862 1113.00041558 8210.83764648 1120.71459961 C8214.30931951 1125.1529567 8217.86547844 1129.51722869 8221.4375 1133.875 C8226.25348814 1139.76364971 8230.88407415 1145.76266398 8235.41870117 1151.86987305 C8239.12975796 1156.86206327 8242.91961948 1161.786376 8246.75 1166.6875 C8258.01463636 1181.123155 8269.12182108 1195.65530537 8279.7890625 1210.5390625 C8283.15035263 1215.22418382 8286.57191227 1219.86363637 8290 1224.5 C8300.35718898 1238.52720532 8310.52803716 1252.67395503 8320.49609375 1266.98046875 C8322.72542355 1270.17987321 8324.9664414 1273.37028394 8327.22265625 1276.55078125 C8336.96792409 1290.31683419 8346.29440045 1304.35481132 8355.61994934 1318.40653992 C8359.04383364 1323.56468018 8362.47798232 1328.71586748 8365.91796875 1333.86328125 C8385.08218963 1362.54377883 8385.08218963 1362.54377883 8393 1375 C8393.44891602 1375.70560059 8393.89783203 1376.41120117 8394.36035156 1377.13818359 C8397.92461078 1382.7476893 8401.46450884 1388.37233367 8405 1394 C8405.56702637 1394.90073242 8406.13405273 1395.80146484 8406.71826172 1396.72949219 C8422.56077397 1421.90520652 8437.92017024 1447.36119293 8453 1473 C8453.60972656 1474.03640625 8454.21945313 1475.0728125 8454.84765625 1476.140625 C8472.62052794 1506.38905457 8489.71977675 1537.03054387 8506.34326172 1567.92480469 C8508.03760685 1571.06980488 8509.73930118 1574.21075634 8511.44140625 1577.3515625 C8534.09672624 1619.26699947 8556.08239461 1661.79919887 8575.85546875 1705.15234375 C8578.16361074 1710.21029544 8580.52860759 1715.23780367 8582.92578125 1720.25390625 C8593.03599282 1741.42675775 8602.63209018 1762.7895926 8611.96630859 1784.31542969 C8613.77606578 1788.48816996 8615.5988516 1792.65506964 8617.42578125 1796.8203125 C8632.04731054 1830.23003498 8645.8138082 1864.00002462 8659 1898 C8659.31477295 1898.81067932 8659.6295459 1899.62135864 8659.95385742 1900.456604 C8678.60324218 1948.51508897 8695.68421461 1997.10375723 8712 2046 C8712.31239624 2046.93483215 8712.62479248 2047.86966431 8712.94665527 2048.83282471 C8745.75864731 2147.08249659 8772.41562178 2247.60874272 8853.90234375 2791.4140625 C8853.96321671 2792.40514008 8854.02408966 2793.39621765 8854.08680725 2794.41732788 C8857.34266236 2849.2536708 8858.33552793 2904.00226206 8858.25713807 2958.91688812 C8858.24959523 2964.81391869 8858.2523254 2970.71088203 8858.26074219 2976.60791016 C8858.31837432 3018.11874979 8857.91700362 3059.524711 8856 3101 C8855.96006172 3101.87796738 8855.92012344 3102.75593475 8855.87897491 3103.6605072 C8855.42379583 3113.6410582 8854.90288457 3123.61603214 8854.30855942 3133.58934402 C8854.1819259 3135.71873045 8854.05733638 3137.84823015 8853.93301392 3139.97775269 C8849.26210393 3219.69252814 8841.5219519 3299.19648569 8821.31768036 3438.02320862 C8821.00370792 3439.97692718 8820.6906 3441.9307846 8820.37750244 3443.88464355 C8809.47891199 3511.70312444 8796.02667692 3579.20801665 8780 3646 C8779.69705017 3647.26726929 8779.39410034 3648.53453857 8779.08197021 3649.84020996 C8765.90050729 3704.97889281 8751.30069002 3759.69535449 8735 3814 C8734.52750824 3815.57409637 8734.52750824 3815.57409637 8734.04547119 3817.17999268 C8717.05336161 3873.68352829 8698.38044864 3929.62814826 8678 3985 C8677.64653503 3985.96091553 8677.29307007 3986.92183105 8676.92889404 3987.91186523 C8644.57717987 4075.73950414 8607.61452265 4161.80111371 8541.0625 4299 C8540.53592804 4300.05582275 8540.00935608 4301.11164551 8539.46682739 4302.19946289 C8532.80308263 4315.55272589 8526.01324066 4328.82692885 8519 4342 C8518.35768123 4343.2105337 8517.71550067 4344.42114075 8517.07348633 4345.63183594 C8508.2053199 4362.32283904 8499.14612738 4378.90414236 8489.97753906 4395.43164062 C8488.02861476 4398.94598426 8486.08833081 4402.46503818 8484.1484375 4405.984375 C8476.57080255 4419.71065806 8468.81653678 4433.31750294 8460.86279297 4446.82910156 C8458.88136119 4450.20195031 8456.91043101 4453.5808399 8454.94140625 4456.9609375 C8437.70405762 4486.52848785 8419.85083958 4515.72099311 8401.50830078 4544.61621094 C8400.03806212 4546.93984485 8398.57852053 4549.26987667 8397.12109375 4551.6015625 C8386.09984419 4569.1602119 8374.4984535 4586.33890928 8362.97090149 4603.56703186 C8359.646903 4608.53493157 8356.32788605 4613.50604355 8353.01953125 4618.484375 C8345.77239173 4629.38843513 8338.47838156 4640.25302349 8331 4651 C8330.46697266 4651.76731445 8329.93394531 4652.53462891 8329.38476562 4653.32519531 C8322.02943064 4663.90530373 8314.5782136 4674.40978913 8307.01171875 4684.83984375 C8304.34000002 4688.52366645 8301.69771788 4692.22753295 8299.0625 4695.9375 C8293.4123264 4703.87525412 8287.61123745 4711.70143347 8281.81884766 4719.53564453 C8280.02434468 4721.9670154 8278.23578173 4724.40263417 8276.44921875 4726.83984375 C8269.27768043 4736.61722348 8261.99966047 4746.30239787 8254.60449219 4755.91162109 C8252.99485521 4758.00669637 8251.39097379 4760.10604426 8249.7890625 4762.20703125 C8238.45159622 4777.07629006 8226.9947152 4791.84510172 8215.27392578 4806.41455078 C8213.53071977 4808.58403715 8211.79708641 4810.76111913 8210.0625 4812.9375 C8207.72496392 4815.86184492 8205.3728335 4818.77365735 8203.0078125 4821.67578125 C8202.46825928 4822.33787598 8201.92870605 4822.9999707 8201.37280273 4823.68212891 C8200.24489807 4825.06607103 8199.11680415 4826.44985894 8197.98852539 4827.83349609 C8194.43586805 4832.20103942 8190.95055266 4836.61412079 8187.5 4841.0625 C8183.08293097 4846.74205179 8178.43634386 4852.19085808 8173.69750977 4857.60351562 C8169.79805187 4862.06003894 8166.02613417 4866.602798 8162.296875 4871.203125 C8158.13208362 4876.27453764 8153.83180338 4881.23047843 8149.54833984 4886.20166016 C8147.5261448 4888.5503654 8145.50924195 4890.90357687 8143.49291992 4893.25732422 C8142.49736436 4894.4194298 8141.50143306 4895.5812136 8140.50512695 4896.74267578 C8137.97481431 4899.69257556 8135.44865938 4902.6458767 8132.9296875 4905.60546875 C8127.46464322 4912.01864641 8121.92886564 4918.33943398 8116.234375 4924.55078125 C8113.70350994 4927.32499872 8111.23360609 4930.14707121 8108.76953125 4932.98046875 C8105.22421912 4937.02666383 8101.60477095 4941.00683622 8098 4945 C8096.49971321 4946.66640851 8094.99971128 4948.33307353 8093.5 4950 C8092.75363281 4950.82886719 8092.00726563 4951.65773437 8091.23828125 4952.51171875 C8089.77560745 4954.13776274 8088.31459667 4955.76530462 8086.85546875 4957.39453125 C8081.14248466 4963.76630991 8075.34870243 4970.06004825 8069.53515625 4976.33984375 C8068.052456 4977.94327278 8066.57254164 4979.54921626 8065.09375 4981.15625 C8042.50590777 5005.69716202 8042.50590777 5005.69716202 8033.34375 5014.59375 C8031.42687583 5016.56174081 8029.64145278 5018.55903343 8027.85423279 5020.6415863 C8024.06568966 5024.98322095 8020.06759217 5029.0734266 8015.98852539 5033.14086914 C8015.2200679 5033.91107895 8014.45161041 5034.68128876 8013.65986633 5035.47483826 C8011.1416236 5037.99744999 8008.6197787 5040.51642393 8006.09765625 5043.03515625 C8004.33306018 5044.80042678 8002.56861251 5046.56584567 8000.80430603 5048.33140564 C7996.64408703 5052.49328261 7992.48130604 5056.65258485 7988.31759399 5060.81096691 C7985.00910851 5064.1156982 7981.70317199 5067.42296358 7978.39868164 5070.73168945 C7973.82178819 5075.31439713 7969.24243635 5079.8946321 7964.66100883 5084.47280693 C7962.9224463 5086.21070521 7961.18461848 5087.94933881 7959.44755745 5089.68873787 C7957.01441486 5092.12443677 7954.57806066 5094.55687877 7952.14086914 5096.98852539 C7951.43256958 5097.69884918 7950.72427002 5098.40917297 7949.99450684 5099.14102173 C7946.04657733 5103.07243455 7942.0013315 5106.82708527 7937.76897335 5110.45133114 C7935.04456945 5112.83644309 7932.52613441 5115.40859745 7930 5118 C7926.06609416 5121.98838006 7922.06067595 5125.79163058 7917.79296875 5129.42578125 C7915.36705418 5131.55572367 7913.13410462 5133.85370655 7910.87426758 5136.15698242 C7909.06361379 5137.93744685 7907.19837477 5139.60231728 7905.2734375 5141.2578125 C7901.12605279 5144.86365364 7897.116791 5148.59861102 7893.125 5152.375 C7887.15371699 5157.99836086 7881.12497921 5163.5439605 7875 5169 C7873.33254891 5170.49912796 7871.66589709 5171.99914535 7870 5173.5 C7869.17757812 5174.23992187 7868.35515625 5174.97984375 7867.5078125 5175.7421875 C7865.81407106 5177.26708244 7864.12138831 5178.79315402 7862.4296875 5180.3203125 C7854.5933387 5187.38980148 7846.6445518 5194.31387172 7838.62597656 5201.17504883 C7834.23619383 5204.93349593 7829.8639836 5208.71164257 7825.5 5212.5 C7811.40729299 5224.72886225 7797.27719031 5236.9214458 7782.80078125 5248.6953125 C7780.28356095 5250.76666533 7777.79648173 5252.86718183 7775.31738281 5254.98364258 C7769.81623596 5259.67972345 7764.2251908 5264.22261126 7758.51464844 5268.66137695 C7753.75066259 5272.37710258 7749.08756515 5276.20553766 7744.4375 5280.0625 C7738.43536606 5285.03464226 7732.35780739 5289.86959896 7726.15625 5294.58984375 C7722.85098013 5297.11379364 7719.57825613 5299.67533557 7716.3125 5302.25 C7703.86680333 5312.04456297 7691.37854182 5321.76753253 7678.68652344 5331.24194336 C7672.46545641 5335.8885057 7666.29019522 5340.5921508 7660.125 5345.3125 C7652.78174614 5350.92513982 7645.36344567 5356.3942432 7637.80908203 5361.71777344 C7634.27181965 5364.22488572 7630.76290096 5366.77142793 7627.25 5369.3125 C7626.49033936 5369.86131836 7625.73067871 5370.41013672 7624.94799805 5370.97558594 C7621.14725727 5373.72183457 7617.34916569 5376.47166738 7613.5546875 5379.2265625 C7603.34318201 5386.63342811 7593.0490752 5393.91362528 7582.69628906 5401.12158203 C7579.84492446 5403.10803615 7576.99657771 5405.09876976 7574.1484375 5407.08984375 C7564.21331067 5414.0283136 7554.25158465 5420.91007631 7544.13720703 5427.58447266 C7541.60592101 5429.26100868 7539.08208669 5430.94847557 7536.55859375 5432.63671875 C7500.23932248 5456.92895265 7463.45567532 5480.48944498 7426.08251953 5503.12841797 C7423.37820101 5504.77037154 7420.67745826 5506.41801939 7417.97865295 5508.0690155 C7402.7738192 5517.37055196 7387.46563569 5526.45597556 7371.98535156 5535.29492188 C7369.18305736 5536.89544712 7366.3839456 5538.50137182 7363.5859375 5540.109375 C7353.2414527 5546.04749684 7342.85233876 5551.90343055 7332.43725586 5557.71679688 C7327.33911464 5560.56358202 7322.2485255 5563.42161921 7317.1796875 5566.3203125 C7306.45413765 5572.44841015 7295.65511206 5578.36653311 7284.65234375 5583.98461914 C7280.00382029 5586.3659498 7275.38361199 5588.77424018 7270.82324219 5591.32006836 C7252.88705536 5601.30773459 7234.50239253 5610.40123334 7216.13525391 5619.56274414 C7211.35268678 5621.94835203 7206.57376551 5624.34116209 7201.79577732 5626.73592472 C7181.95543331 5636.6764027 7162.08299516 5646.47742912 7141.88793945 5655.67953491 C7137.49171719 5657.68963869 7133.11533257 5659.74154815 7128.73828125 5661.79296875 C7045.38740497 5700.73288052 6959.8709179 5735.04709696 6854.51519775 5772.12884521 C6851.90459915 5773.03304269 6849.29481879 5773.93957716 6846.68505859 5774.84619141 C6761.31671882 5804.46563519 6674.43523334 5829.15203788 6032 5930 C6030.92351196 5930.04878296 6029.84702393 5930.09756592 6028.73791504 5930.14782715 C6021.01357673 5930.49406795 6013.28843393 5930.81654525 6005.5625 5931.125 C6004.13102127 5931.18318909 6004.13102127 5931.18318909 6002.67062378 5931.24255371 C6000.83762345 5931.31573725 5999.00452027 5931.38639968 5997.1713138 5931.45422373 C5995.16875428 5931.52909703 5993.16635726 5931.60852195 5991.16420188 5931.69351872 C5985.0290431 5931.9245557 5978.93615398 5932.00499639 5972.79916165 5931.88310375 C5944.23991773 5931.34599434 5918.67277625 5935.39656352 5891.06346445 5942.42491562 C5811.14609601 5962.74613311 5729.71452021 5974.34265924 5248.49494726 5916.28087016 C5169.77196499 5868.8656502 5099.76062918 5807.22875276 4888.42100742 5606.38294767 C4884.77228334 5602.71447686 4881.12132256 5599.048244 4877.46918081 5595.38317584 C4825.15277853 5542.87680697 4773.37601038 5489.85241008 4569.7710391 5272.10479411 C4557.12109724 5258.33578721 4544.46575751 5244.57176975 4531.79693604 5230.82012939 C4531.01121509 5229.96724434 4531.01121509 5229.96724434 4530.20962099 5229.09712929 C4479.84684192 5174.43531822 4428.54421967 5120.69271208 4377.00302752 5067.14359817 C4374.80293385 5064.85766122 4372.60310432 5062.57147017 4370.40328575 5060.28526848 C4350.15019885 5039.23691984 4329.88643623 5018.19886611 4309.60941402 4997.17357431 C4309.06992521 4996.61417433 4308.5304364 4996.05477435 4307.97459945 4995.47842285 C4306.88541019 4994.34903642 4305.79621998 4993.21965091 4304.70702881 4992.09026632 C4260.10720081 4945.84454868 4215.60191935 4899.50837697 4171.1618144 4853.10916135 C4169.61510394 4851.49430908 4168.06832407 4849.87952333 4166.5215244 4848.26475652 C4116.50534089 4796.05014974 4066.65759955 4743.68253168 3895.24479086 4560.04743852 C3892.69185814 4557.29717311 3890.13870952 4554.54710829 3887.58549315 4551.79710621 C3865.49303135 4528.00157194 3843.41707195 4504.19084924 3821.36857851 4480.35456589 C3818.53857196 4477.29510415 3815.70810644 4474.23606817 3812.87720852 4471.1774312 C3805.03202415 4462.70082711 3797.19203763 4454.21948113 3789.36136274 4445.72947033 C3787.03177253 4443.20399522 3784.70001115 4440.68055484 3782.36625421 4438.1589298 C3779.71020972 4435.28880144 3777.05886521 4432.41441383 3774.41145024 4429.53632425 C3773.45516113 4428.49828188 3772.49717975 4427.4617956 3771.53740244 4426.42697757 C3770.24579806 4425.03383344 3768.96086102 4423.63451648 3767.67635617 4422.23482374 C3766.96074744 4421.459192 3766.24513871 4420.68356026 3765.50784487 4419.88442452 C3764 4418 3764 4418 3764 4416 C3765.15639231 4415.99965791 3765.15639231 4415.99965791 3766.33614609 4415.99930891 C3831.81621991 4415.97993 3897.2962936 4415.96009949 3962.77636719 4415.93994141 C3964.07302067 4415.93954227 3965.36967414 4415.93914313 3966.70562015 4415.9387319 C4041.8866775 4415.91558302 4117.06773472 4415.89196541 4381.32663058 4415.79953316 C4383.64017821 4415.79867482 4385.95372583 4415.7978169 4388.26727345 4415.79695912 C4453.82974524 4415.77265009 4519.39221688 4415.7479563 4584.95468833 4415.72274766 C4587.38152517 4415.72181455 4589.808362 4415.72088146 4592.23519884 4415.71994839 C4593.03674043 4415.71964021 4593.83828202 4415.71933202 4594.66411274 4415.7190145 C4624.8019702 4415.7074279 4654.93982768 4415.69592915 4685.07768519 4415.68448287 C4688.35212429 4415.68323916 4691.6265634 4415.68199445 4694.9010025 4415.68074883 C4772.15350363 4415.65136218 4849.40600487 4415.62355018 4926.6585083 4415.60089111 C4927.4710306 4415.60065268 4928.2835529 4415.60041425 4929.12069709 4415.60016859 C4956.13909003 4415.59224257 4983.15748301 4415.58447014 5010.175876 4415.57671889 C5034.5886392 4415.5697147 5059.00140237 4415.56265534 5083.4141655 4415.5554142 C5084.61722652 4415.55505739 5084.61722652 4415.55505739 5085.8445918 4415.55469337 C5136.10832609 4415.5397715 5186.37205914 4415.52245759 5236.63579178 4415.50273705 C5237.41263052 4415.50243257 5238.18946926 4415.5021281 5238.98984858 4415.50181441 C5273.11437763 4415.48843789 5307.23890647 4415.47456372 5341.36343509 4415.46012124 C5355.09423766 4415.45431227 5368.82504025 4415.44857694 5382.55584286 4415.44288195 C5384.83242148 4415.44193711 5387.10900009 4415.44098987 5389.3855787 4415.44004238 C5424.17263486 4415.42558137 5458.95969063 4415.4127539 5493.74674892 4415.40471697 C5494.49586776 4415.40454387 5495.2449866 4415.40437078 5496.01680601 4415.40419244 C5508.06596953 4415.40141838 5520.11513307 4415.39878169 5532.16429662 4415.39616872 C5566.4111636 4415.38874193 5600.65802894 4415.38037247 5634.9048934 4415.36497664 C5635.60127591 4415.36466404 5636.29765843 4415.36435144 5637.01514345 4415.36402937 C5652.21623679 4415.35718604 5667.41732981 4415.34980151 5682.61842263 4415.34188902 C5688.68325684 4415.33874087 5694.74809108 4415.3356667 5700.81292534 4415.33261681 C5701.47446079 4415.33228221 5702.13599624 4415.33194761 5702.81757822 4415.33160288 C5724.35689892 4415.32074502 5745.89621474 4415.3165488 5767.43553795 4415.31562213 C5787.9957926 4415.31459951 5808.55603438 4415.30643307 5829.11628324 4415.29084408 C5840.09996344 4415.28270863 5851.08362235 4415.27762625 5862.06730542 4415.28172119 C5921.56682248 4415.47150227 5921.56682248 4415.47150227 5981 4413 C5982.92479579 4412.87693648 5982.92479579 4412.87693648 5984.88847634 4412.75138684 C5991.91170519 4412.30024512 5998.92489973 4411.7808063 6005.9375 4411.1875 C6006.95487244 4411.10351959 6007.97224487 4411.01953918 6009.02044678 4410.93301392 C6108.69801139 4402.67922044 6207.53865454 4384.61097724 6560.4140625 4251.38867188 C6563.44575193 4249.76062718 6566.48833041 4248.15382967 6569.53125 4246.546875 C6582.97528925 4239.4264378 6596.23903182 4232.0679741 6609.33984375 4224.328125 C6613.83693723 4221.67169165 6618.3674297 4219.08232041 6622.91796875 4216.51879883 C6634.52428174 4209.97268905 6645.82407557 4202.98322132 6657.07714844 4195.84960938 C6659.81918435 4194.11442193 6662.56844242 4192.3914086 6665.3203125 4190.671875 C6695.02272573 4172.03821922 6723.89219733 4151.95053765 6752 4131 C6752.58749023 4130.56316895 6753.17498047 4130.12633789 6753.78027344 4129.67626953 C6771.24137286 4116.68845719 6788.33936265 4103.24302065 6805.19140625 4089.4765625 C6806.7923548 4088.16952459 6808.39597976 4086.86576644 6810 4085.5625 C6816.49714652 4080.27412492 6822.90884841 4074.89018667 6829.28662109 4069.45898438 C6830.44511347 4068.47249956 6831.6043127 4067.48684435 6832.76416016 4066.50195312 C6839.80398785 4060.52223614 6846.75045347 4054.46983525 6853.55859375 4048.2265625 C6855.66154833 4046.30866793 6857.78669156 4044.42623955 6859.9375 4042.5625 C6865.38986756 4037.81651204 6870.69232498 4032.90626695 6876 4028 C6876.60328125 4027.44328613 6877.2065625 4026.88657227 6877.828125 4026.31298828 C6885.14932983 4019.54957152 6892.3822597 4012.73625062 6899.33984375 4005.59765625 C6901.4299185 4003.55668752 6903.53955913 4001.64594918 6905.75 3999.7421875 C6910.39271675 3995.71639238 6914.72985867 3991.4171904 6919.0625 3987.0625 C6919.82626953 3986.30259766 6920.59003906 3985.54269531 6921.37695312 3984.75976562 C6925.52737113 3980.60224681 6929.48575567 3976.35110876 6933.31811523 3971.90014648 C6936.60971434 3968.18138965 6940.20076754 3964.75907103 6943.75 3961.2890625 C6947.41533591 3957.67281591 6950.85456016 3953.9325101 6954.21875 3950.03515625 C6957.82524633 3945.91457602 6961.62926151 3941.97488269 6965.39453125 3938 C6971.68692168 3931.32980559 6977.67178069 3924.40967353 6983.625 3917.4375 C6987.40422738 3913.01684689 6991.20138483 3908.61286063 6995.02099609 3904.22705078 C7000.80572629 3897.58130595 7006.45977526 3890.85190046 7012 3884 C7012.99406922 3882.78716792 7013.98891311 3881.57497052 7014.984375 3880.36328125 C7021.72097965 3872.1466882 7028.26352305 3863.80652017 7034.6875 3855.34375 C7037.48737586 3851.65935279 7040.32862294 3848.009209 7043.18237305 3844.36645508 C7054.68468804 3829.67696364 7065.68204563 3814.63177889 7076.36474609 3799.33740234 C7078.13973371 3796.80026717 7079.92342524 3794.26936411 7081.70703125 3791.73828125 C7091.80117189 3777.37036117 7101.49541385 3762.76379049 7111 3748 C7111.81114258 3746.74074707 7111.81114258 3746.74074707 7112.63867188 3745.45605469 C7138.90191021 3704.55848913 7163.00134899 3662.27079735 7185.01239014 3618.94268799 C7186.0286175 3616.94370766 7187.04759959 3614.94614815 7188.06689453 3612.94873047 C7198.63197171 3592.22235063 7208.62400841 3571.29092682 7218 3550 C7218.30723999 3549.30302002 7218.61447998 3548.60604004 7218.93103027 3547.88793945 C7239.18718972 3501.87597146 7256.78829523 3454.90645218 7272.31762695 3407.09991455 C7272.9709875 3405.08928222 7273.62697056 3403.07952062 7274.28320312 3401.06982422 C7291.57282352 3347.86519601 7304.86939336 3293.45058345 7315.50579834 3238.55053711 C7315.82749244 3236.89029835 7316.15038744 3235.23029168 7316.47467041 3233.57055664 C7328.29699495 3173.05602016 7335.43058537 3111.5371035 7339 3050 C7339.07831055 3048.68131927 7339.07831055 3048.68131927 7339.15820312 3047.33599854 C7342.37905914 2992.74919914 7342.38210249 2937.57800427 7339 2883 C7338.93683594 2881.97332214 7338.87367187 2880.94664429 7338.80859375 2879.88885498 C7332.27193046 2774.95978851 7314.9111656 2670.99011808 7205 2355 C7204.53835449 2354.0188623 7204.07670898 2353.03772461 7203.60107422 2352.02685547 C7191.27323463 2325.90781527 7178.60565345 2299.83732201 7164.47607422 2274.64013672 C7162.88823343 2271.80009201 7161.32042045 2268.94951544 7159.75390625 2266.09765625 C7151.54100703 2251.20986273 7142.82499269 2236.67407537 7133.94091797 2222.18261719 C7131.71882193 2218.53893871 7129.53418726 2214.87433471 7127.35717773 2211.20361328 C7110.57677973 2182.94097906 7092.00665984 2155.80108236 7073 2129 C7072.46987305 2128.25234375 7071.93974609 2127.5046875 7071.39355469 2126.734375 C7063.76140774 2116.00152176 7055.85999303 2105.4903978 7047.84765625 2095.0390625 C7044.9719756 2091.28472136 7042.13596473 2087.50402208 7039.32226562 2083.703125 C7034.13163581 2076.69822646 7028.71977261 2069.91907674 7023.14233398 2063.21826172 C7019.49192949 2058.83011143 7015.93087333 2054.38882294 7012.4375 2049.875 C7007.08238825 2042.98253559 7001.37641363 2036.42194491 6995.62304688 2029.86132812 C6992.99384324 2026.84612829 6990.40609089 2023.79581533 6987.8125 2020.75 C6983.37726287 2015.55451941 6978.84023273 2010.47219511 6974.22265625 2005.4375 C6972.32578236 2003.35727275 6970.46607057 2001.25443102 6968.625 1999.125 C6964.06241681 1993.8785636 6959.30840279 1988.80682036 6954.58056641 1983.70996094 C6953.04080476 1982.04414528 6951.50928248 1980.37117548 6949.98046875 1978.6953125 C6944.10957703 1972.27132402 6938.10994317 1966.03357066 6931.88671875 1959.94921875 C6929.71867096 1957.78641775 6927.70136718 1955.53126382 6925.703125 1953.2109375 C6921.69225787 1948.57955628 6917.40416536 1944.25718225 6913.0625 1939.9375 C6912.30259766 1939.17373047 6911.54269531 1938.40996094 6910.75976562 1937.62304688 C6906.60224681 1933.47262887 6902.35110876 1929.51424433 6897.90014648 1925.68188477 C6894.18138965 1922.39028566 6890.75907103 1918.79923246 6887.2890625 1915.25 C6883.67281591 1911.58466409 6879.9325101 1908.14543984 6876.03515625 1904.78125 C6871.91457602 1901.17475367 6867.97488269 1897.37073849 6864 1893.60546875 C6857.32980559 1887.31307832 6850.40967353 1881.32821931 6843.4375 1875.375 C6839.01684689 1871.59577262 6834.61286063 1867.79861517 6830.22705078 1863.97900391 C6823.58130595 1858.19427371 6816.85190046 1852.54022474 6810 1847 C6808.78716792 1846.00593078 6807.57497052 1845.01108689 6806.36328125 1844.015625 C6798.1466882 1837.27902035 6789.80652017 1830.73647695 6781.34375 1824.3125 C6777.65935279 1821.51262414 6774.009209 1818.67137706 6770.36645508 1815.81762695 C6755.62259697 1804.27274122 6740.51381971 1793.25321659 6725.16894531 1782.52294922 C6722.97802779 1780.98457197 6720.79687405 1779.4331468 6718.6171875 1777.87890625 C6696.95722653 1762.49292845 6674.61203173 1747.94704234 6652 1734 C6650.99146973 1733.37738281 6649.98293945 1732.75476562 6648.94384766 1732.11328125 C6618.11469586 1713.13037002 6586.59252567 1695.50253063 6554.44921875 1678.8359375 C6551.00362407 1677.04807755 6547.56814804 1675.24364782 6544.14453125 1673.4140625 C6531.93746438 1666.89468393 6519.54031665 1660.85119896 6507 1655 C6506.38147156 1654.71082703 6505.76294312 1654.42165405 6505.12567139 1654.12371826 C6423.64601025 1616.04694605 6338.93932023 1585.45902629 6010.45703125 1522.09765625 C6009.7254631 1522.03678329 6008.99389496 1521.97591034 6008.24015808 1521.91319275 C5995.53533095 1520.89634062 5982.81251994 1520.06645833 5970.07602287 1519.58517502 C5946.01063743 1518.66636987 5922.22200066 1516.74310591 5898.29722942 1514.0271796 C5893.34792489 1513.46923423 5888.39666266 1512.92921148 5883.44550605 1512.38799077 C5877.00819991 1511.68355687 5870.57099444 1510.97829453 5864.13441582 1510.26723934 C5781.24214137 1501.11140589 5698.27875285 1492.55623542 4754.85201354 1428.18802799 C4740.91797655 1427.61133627 4726.98453508 1427.02167967 4713.05138868 1426.42387962 C4621.51336696 1422.49992443 4529.96154944 1418.95620308 4026.875 1421.7734375 C4025.96557755 1421.81116703 4025.05615509 1421.84889657 4024.11917438 1421.88776942 C3933.77182933 1425.64339169 3843.52641252 1431.01975936 2864.5 1840.4140625 C2863.94252617 1840.90422099 2863.38505235 1841.39437949 2862.81068537 1841.89939127 C2807.71032946 1890.35758114 2753.96144091 1940.25779215 2482.76228364 2230.56846513 C2475.64275523 2238.75352854 2468.51183166 2246.92852234 2461.3722263 2255.0960778 C2414.53871697 2308.67720677 2368.0227699 2362.52309936 1910 2966 C1914.5861829 2971.50135012 1919.45849174 2976.59872715 1924.52958079 2981.65330662 C1925.38086974 2982.50582248 1926.23215868 2983.35833834 1927.10924426 2984.23668802 C1929.4725037 2986.60233919 1931.83798092 2988.9657321 1934.20442067 2991.32819934 C1936.79137004 2993.91192006 1939.3753976 2996.49856028 1941.95980548 2999.08482272 C1946.51368447 3003.64116408 1951.06942693 3008.19563561 1955.62637558 3012.74890683 C1962.46812159 3019.58515322 1969.30696278 3026.42430016 1976.14524593 3033.26401023 C1987.85204472 3044.97308313 1999.56122505 3056.67977185 2011.27167122 3068.38519684 C2023.20827767 3080.31670664 2035.14377741 3092.24932192 2047.0779459 3104.18327024 C2047.8338484 3104.93915751 2048.58975089 3105.69504478 2049.36855952 3106.47383773 C2053.22791154 3110.33312225 2057.08724564 3114.19242469 2060.9465734 3118.05173347 C2089.15957719 3146.26452532 2117.37503055 3174.47486635 2145.59170151 3202.68399048 C2174.20036135 3231.28501753 2202.80791894 3259.88714644 2231.41411591 3288.49063683 C2232.31552903 3289.39196379 2233.21694215 3290.29329076 2234.14567082 3291.22193067 C2243.33122484 3300.40660869 2252.51675808 3309.5913075 2261.70227745 3318.77602018 C2281.49348711 3338.56548954 2301.28485285 3358.3548028 2321.07629132 3378.14404333 C2322.02570245 3379.09334941 2322.97511357 3380.04265548 2323.95329473 3381.02072841 C2354.50501455 3411.56905362 2385.05738532 3442.1167277 2415.61021876 3472.66393912 C2416.60982508 3473.66336158 2417.6094314 3474.66278405 2418.63932882 3475.69249204 C2430.83644526 3487.88736151 2443.03358188 3500.08221079 2455.23072306 3512.2770555 C2524.32997658 3581.36330223 2593.42786193 3650.45091688 2662.52363968 3719.54063988 C2663.5478972 3720.56480743 2664.57215473 3721.58897498 2665.62745036 3722.6441779 C2690.60358275 3747.61811883 2715.57964931 3772.59212559 2740.55568987 3797.56615835 C2780.78740701 3837.79463955 2821.01927897 3878.02296592 2861.25116284 3918.25128038 C2864.46113309 3921.4609661 2867.67110296 3924.67065221 2870.88107273 3927.88033843 C2971.77036409 4028.76071323 3072.66093183 4129.6398115 3173.55200288 4230.51840643 C3179.13180594 4236.09751957 3184.71160787 4241.67663382 3190.29140948 4247.2557484 C3293.44997305 4350.40160809 3396.60914311 4453.54686115 3499.76946936 4556.6909579 C3504.25373862 4561.17452187 3508.73800734 4565.65808639 3513.22227606 4570.14165089 C3534.49076217 4591.40679671 3555.7592536 4612.6719372 3577.02774554 4633.93707719 C3581.49759003 4638.40621725 3585.96743441 4642.8753574 3590.43727869 4647.34449766 C3591.5431169 4648.45016169 3592.64895511 4649.55582572 3593.78830357 4650.69499472 C3596.02178303 4652.9281224 3598.25526249 4655.16125009 3600.48874194 4657.39437779 C3606.06969493 4662.97445168 3611.6506483 4668.5545252 3617.23160242 4674.13459798 C3720.27618667 4777.16290994 3823.32008905 4880.19190365 3926.36075783 4983.22413158 C3928.49947401 4985.36267183 3930.6381902 4987.50121207 3932.77690639 4989.6397523 C3976.1181612 5032.97744943 4019.45923422 5076.31532837 4062.80003081 5119.65348376 C4083.59191001 5140.44409546 4104.38383021 5161.23466617 4125.17579448 5182.02519279 C4127.24402794 5184.09328346 4129.31226106 5186.16137448 4131.38049381 5188.22946586 C4198.42415589 5255.26854356 4265.47119911 5322.30423842 4332.52023862 5389.33793787 C4378.2641424 5435.07138183 4424.00757235 5480.80529921 4469.74764752 5526.54257238 C4471.1694765 5527.96431344 4471.1694765 5527.96431344 4472.62002929 5529.41477654 C4493.29442643 5550.08791345 4513.968559 5570.76131494 4534.64243292 5591.43497509 C4542.88635538 5599.67880294 4551.1303163 5607.92259234 4559.37429047 5616.16636848 C4560.27359311 5617.06565142 4561.17289575 5617.96493435 4562.09944999 5618.89146829 C4590.67325141 5647.46460592 4619.25014781 5676.03464563 4647.82881992 5704.60291156 C4675.9456459 5732.7095231 4704.05947661 5760.81912664 4732.16888132 5788.93316031 C4736.01061394 5792.7755244 4739.85238189 5796.61785316 4743.69417115 5800.46016064 C4744.44633591 5801.2124295 4745.19850067 5801.96469836 4745.9734583 5802.73976324 C4757.87715824 5814.64492645 4769.78421551 5826.54672591 4781.69268497 5838.44711807 C4793.31754985 5850.06423225 4804.93891662 5861.68483569 4816.55643212 5873.30929962 C4823.3493231 5880.10603841 4830.14496901 5886.899995 4836.94463453 5893.68995649 C4841.43572188 5898.17517011 4845.92324523 5902.66392763 4850.40775298 5907.1557198 C4852.9536364 5909.70553284 4855.50111148 5912.25370033 4858.05297165 5914.79753302 C4860.78110857 5917.51715328 4863.50160859 5920.24432724 4866.22128221 5922.97241255 C4867.02130362 5923.76746479 4867.82132504 5924.56251704 4868.64558953 5925.38166179 C4869.35966799 5926.10048943 4870.07374645 5926.81931707 4870.80946365 5927.55992736 C4871.74106826 5928.49139658 4871.74106826 5928.49139658 4872.69149317 5929.44168336 C4874 5931 4874 5931 4874 5933 C4767.49198562 5945.04092262 4660.88879263 5956.22485589 3893.54059153 6008.06744348 C3881.92567186 6008.5515102 3870.311253 6009.04640771 3858.69708282 6009.54811668 C3782.45491441 6012.83871313 3706.20111137 6015.81094613 3287.08203125 6013.484375 C3286.32390774 6013.4528669 3285.56578422 6013.4213588 3284.78468727 6013.3888959 C3209.43183964 6010.25116684 3134.16462097 6005.75868658 2316.69921875 5663.140625 C2315.76722641 5662.32020385 2314.83523407 5661.49978271 2313.87499953 5660.65450031 C2222.47599857 5580.12151012 2136.83660361 5494.04062796 1996.08194111 5335.20270733 C1990.51480526 5328.80724676 1984.93798436 5322.42033836 1979.35552716 5316.03824878 C1933.49252277 5263.60237813 1888.17431701 5210.73197429 1843.50418832 5157.27558246 C1840.67590863 5153.89106853 1837.84583633 5150.5080698 1835.01380012 5147.12669859 C1834.32350124 5146.30235052 1833.63320235 5145.47800245 1832.92198532 5144.62867413 C1831.66562224 5143.12850593 1830.40900853 5141.62854755 1829.15201431 5140.12890814 C1716.92697647 5006.09991596 1618.93523005 4863.45368118 1517 4721 C1516.67 5120.96 1516.34 5520.92 1516 5933 C1015.72 5933 515.44 5933 0 5933 C0 3975.11 0 2017.22 0 0 Z " fill="#010101" transform="translate(0,0)"/>
<path d="M0 0 C700.55591689 0 700.55591689 0 805.640625 86.86328125 C807.68167962 88.71171979 809.76374282 90.48334885 811.875 92.25 C827.74740437 106.18209041 840.43224338 123.83485914 851 142 C851.3810791 142.64308105 851.7621582 143.28616211 852.15478516 143.94873047 C887.1392987 203.58786072 882.304797 287.00345122 883.54660034 353.89718628 C883.56788407 355.0271234 883.5891678 356.15706051 883.61109649 357.32123815 C884.05595895 381.39440311 884.14468481 405.46234698 884.13072467 429.5390048 C884.12840018 435.51304951 884.13198398 441.48709171 884.13470459 447.46113586 C884.13908731 459.07825763 884.13822012 470.69537284 884.13529195 482.31249483 C884.13297228 491.77119533 884.13271184 501.22989412 884.13381577 510.68859482 C884.13393034 511.707291 884.13393034 511.707291 884.13404724 512.74656689 C884.13435871 515.50527666 884.13467713 518.26398643 884.135007 521.02269619 C884.13804488 546.73726255 884.13532582 572.45182539 884.1299101 598.1663912 C884.12516144 620.88631998 884.12559613 643.60624315 884.13037109 666.32617188 C884.13575288 692.01756338 884.13783452 717.70895179 884.13475883 743.40034378 C884.13443824 746.15008346 884.13412539 748.89982315 884.13381577 751.64956284 C884.13373669 752.32632492 884.13365761 753.003087 884.13357614 753.70035702 C884.13245033 763.8106365 884.13375336 773.92091361 884.13629532 784.03119278 C884.13912788 795.54747319 884.13828314 807.06374681 884.13301457 818.58002646 C884.13042427 824.43064549 884.12929097 830.28125328 884.13266373 836.13187218 C884.14428415 858.20218739 884.06414022 880.26155844 883.54660034 902.32662964 C883.52664749 903.18537922 883.50669465 904.0441288 883.48613717 904.92890109 C879.54408601 1069.98979101 879.54408601 1069.98979101 828 1126 C827.32710938 1126.74378906 826.65421875 1127.48757813 825.9609375 1128.25390625 C819.95926603 1134.57481556 812.9825348 1139.81970903 806 1145 C805.17580566 1145.61464111 805.17580566 1145.61464111 804.33496094 1146.24169922 C741.93535837 1192.03767934 658.00431288 1198.66624549 583.25 1202.1875 C582.09383179 1202.24289444 582.09383179 1202.24289444 580.91430664 1202.29940796 C387.48432824 1211.29270666 193.63893194 1204 0 1204 C0 806.68 0 409.36 0 0 Z M382 206 C382 467.03 382 728.06 382 997 C433.59830738 997.18457859 433.59830738 997.18457859 479.05078125 975.1640625 C489.83868653 963.84484711 493.11344372 946.47148785 495.5625 931.5625 C495.77229492 930.28681152 495.98208984 929.01112305 496.19824219 927.69677734 C497.85683702 917.21472466 498.90742026 906.70097525 499.75 896.125 C499.83847702 895.0446196 499.83847702 895.0446196 499.92874146 893.94241333 C502.47360472 862.12367969 502.14814489 830.13735787 502.13072467 798.24466801 C502.12843208 792.01684528 502.13196912 785.78902518 502.13470459 779.561203 C502.13886672 768.10386595 502.13854516 756.64653634 502.13579312 745.18919935 C502.133262 734.59750048 502.13262804 724.00580356 502.13381577 713.41410446 C502.13389215 712.70726978 502.13396854 712.0004351 502.13404724 711.27218118 C502.13435865 708.40176756 502.13467706 705.53135394 502.135007 702.66094033 C502.13805557 675.81726491 502.13530929 648.97359287 502.1299101 622.12991798 C502.1251667 598.36623258 502.12558947 574.60255254 502.13037109 550.83886719 C502.13574514 524.04242063 502.13783821 497.24597703 502.13475883 470.44953001 C502.13443819 467.58419569 502.13412534 464.71886138 502.13381577 461.85352707 C502.13369715 460.79551391 502.13369715 460.79551391 502.13357614 459.71612676 C502.13244654 449.14162829 502.13375412 438.56713199 502.13629532 427.99263382 C502.13917579 415.94748059 502.13830057 403.90233505 502.13301457 391.85718204 C502.13041233 385.72833748 502.12931241 379.5995037 502.13266373 373.47065926 C507.21269709 299.44047974 507.21269709 299.44047974 486 232 C485.10087891 230.77410156 485.10087891 230.77410156 484.18359375 229.5234375 C468.19577405 211.04735248 439.67474793 208.67483934 417 207 C405.45 206.67 393.9 206.34 382 206 Z " fill="#FFFFFF" transform="translate(10233,4729)"/>
<path d="M0 0 C105.6 0 211.2 0 320 0 C330.89 27.72 330.89 27.72 342 56 C349.07584206 73.87590417 349.07584206 73.87590417 356.15625 91.75 C361.9375827 106.34829142 367.66969211 120.96591224 373.40576172 135.58203125 C379.7443241 151.73179687 386.10651494 167.87190093 392.5 184 C399.8388679 202.5129061 407.13055362 221.04402271 414.40576172 239.58203125 C420.7443241 255.73179687 427.10651494 271.87190093 433.5 288 C440.8388679 306.5129061 448.13055362 325.04402271 455.40576172 343.58203125 C461.7443241 359.73179687 468.10651494 375.87190093 474.5 392 C481.36617708 409.32050412 488.19327642 426.65604735 495 444 C502.14197043 462.19731279 509.30342113 480.38670837 516.5 498.5625 C516.89155273 499.55161377 517.28310547 500.54072754 517.68652344 501.55981445 C518.80101172 504.37467854 519.91599337 507.18934651 521.03125 510.00390625 C521.34598267 510.79849747 521.66071533 511.59308868 521.98498535 512.41175842 C524.97316058 519.94800357 527.98906891 527.47267227 531 535 C531.495 270.175 531.495 270.175 532 0 C637.27 0 742.54 0 851 0 C851 397.32 851 794.64 851 1204 C740.45 1204 629.9 1204 516 1204 C509.73 1186.51 503.46 1169.02 497 1151 C493.52724341 1141.37260274 490.0519293 1131.74633288 486.5625 1122.125 C485.68867388 1119.71331449 484.81489623 1117.30161142 483.94116211 1114.88989258 C477.5873132 1097.35648946 471.21112075 1079.83123605 464.8319397 1062.30703735 C457.86570237 1043.16725505 450.94643187 1024.01081034 444.04239655 1004.84853363 C437.71695027 987.29232265 431.37472088 969.74246476 424.98901367 952.20806885 C419.22293192 936.3750058 413.48310961 920.53253046 407.75 904.6875 C400.87282806 885.68067511 393.97711981 866.68073151 387.0625 847.6875 C379.92277858 828.07523666 372.82493276 808.44819758 365.75 788.8125 C358.25182352 767.99830771 358.25182352 767.99830771 350.72265625 747.1953125 C350.43893661 746.41340546 350.15521698 745.63149841 349.86289978 744.82589722 C339.95100595 717.53519451 329.96456331 690.27143642 320 663 C319.67 841.53 319.34 1020.06 319 1204 C213.73 1204 108.46 1204 0 1204 C0 806.68 0 409.36 0 0 Z " fill="#FFFFFF" transform="translate(9230,4729)"/>
<path d="M0 0 C126.06 0 252.12 0 382 0 C382.01981934 27.82199707 382.03963867 55.64399414 382.06005859 84.30908203 C382.07358533 102.89144912 382.08714535 121.47381614 382.10116577 140.05618286 C382.10205564 141.23687548 382.1029455 142.4175681 382.10386233 143.63403928 C382.13387314 183.40632744 382.16658802 223.17861291 382.20132446 262.95089722 C382.2030249 264.8990388 382.2030249 264.8990388 382.20475969 266.88653679 C382.22881474 294.42940904 382.25326359 321.97228092 382.27818505 349.5151524 C382.29070539 363.35294438 382.30314802 377.19073643 382.31551713 391.02852855 C382.3173833 393.11577458 382.31925168 395.20302061 382.32112016 397.29026664 C382.34983784 429.39213798 382.3768992 461.49400966 382.39910889 493.59588623 C382.39958565 494.2849521 382.40006241 494.97401796 382.40055362 495.68396461 C382.40822921 506.79218898 382.41576448 517.90041345 382.42328111 529.00863793 C382.44496042 561.04360768 382.46769475 593.07857516 382.49726295 625.11353874 C382.49848101 626.43338977 382.49969907 627.7532408 382.50095404 629.11308731 C382.51317835 642.29609971 382.52579494 655.47911169 382.53890612 668.66212324 C382.54535583 675.15018491 382.55173206 681.63824665 382.55806351 688.12630844 C382.55931181 689.40316056 382.56056012 690.68001268 382.56184625 691.99555729 C382.58169301 712.48901154 382.59478032 732.9824647 382.60529328 753.47592563 C382.61602703 774.11529478 382.63399283 794.75464787 382.65916704 815.39400454 C382.67387949 827.63249823 382.68322088 839.87096735 382.68456683 852.10946997 C382.68601922 860.31581839 382.69478777 868.52213933 382.70915592 876.72847521 C382.71710867 881.38440794 382.72221476 886.04028687 382.71827881 890.69622602 C382.70498399 909.0010814 382.95211433 927.25204046 383.90021706 945.53507805 C383.93955715 946.3135316 383.97889724 947.09198515 384.01942946 947.8940282 C385.17033941 983.95688777 385.17033941 983.95688777 402.125 1014.25 C414.98467771 1024.55496495 431.48636102 1023.73177542 447 1023 C456.99845966 1021.80585198 466.81265766 1017.71190425 473.875 1010.375 C485.33894487 995.76462635 486.45772582 973.88693406 488 956 C488.10054688 954.865625 488.20109375 953.73125 488.3046875 952.5625 C490.2345214 927.2992198 490.15368967 901.90904511 490.1572054 876.5897235 C490.15896373 871.90282212 490.16646451 867.21592894 490.17318195 862.52903253 C490.18414713 854.3449111 490.19157431 846.16079266 490.19658089 837.9766655 C490.20404184 825.80747615 490.21713698 813.63829724 490.23132664 801.46911411 C490.25504802 780.9911279 490.27428933 760.51313981 490.29092598 740.03514671 C490.30739943 719.77628511 490.32589561 699.51742699 490.34705925 679.25856972 C490.34837686 677.9962149 490.34969446 676.73386009 490.351052 675.4332521 C490.35775462 669.02169091 490.36449305 662.61012976 490.37124526 656.19856862 C490.41893506 610.85365515 490.46214173 565.50873864 490.50268555 520.16381836 C490.51250011 509.18926999 490.52233053 498.21472164 490.53222656 487.24017334 C490.53284036 486.55946371 490.53345416 485.87875408 490.53408656 485.17741689 C490.562681 453.48993568 490.59382451 421.80245711 490.62561907 390.11497897 C490.627685 388.05596966 490.62974982 385.99696035 490.63181442 383.93795103 C490.64549924 370.29195924 490.65922785 356.64596749 490.67298577 342.99997576 C490.70100873 315.20459936 490.72875381 287.40922268 490.7563324 259.61384583 C490.7576006 258.33602134 490.7588688 257.05819685 490.76017542 255.7416504 C490.79901157 216.59609382 490.83667703 177.45053624 490.8731842 138.30497742 C490.8742206 137.19417514 490.87525699 136.08337285 490.87632478 134.9389099 C490.91827351 89.95927393 490.95898076 44.97963682 491 0 C617.06 0 743.12 0 873 0 C873.04037864 210.52526871 873.04037864 210.52526871 873.04816496 291.35875487 C873.05020595 312.49366879 873.05229376 333.6285827 873.05452599 354.76349659 C873.05479584 357.31958682 873.05506421 359.87567704 873.05533109 362.43176727 C873.05958974 403.10306616 873.06708734 443.77436365 873.07629722 484.44566169 C873.08575398 526.28368946 873.09189103 568.12171645 873.09391499 609.95974527 C873.0942031 615.88369869 873.09452873 621.80765211 873.09487724 627.73160553 C873.09494467 628.89740107 873.09501209 630.06319662 873.09508156 631.2643193 C873.09625832 649.94899597 873.1008829 668.63367024 873.10683203 687.31834593 C873.11275375 706.15203543 873.11495943 724.98572258 873.11350138 743.81941298 C873.1128128 754.00385656 873.11369584 764.1882937 873.11920547 774.37273598 C873.22321322 974.69171438 873.22321322 974.69171438 824 1079 C823.55027832 1079.61262695 823.10055664 1080.22525391 822.63720703 1080.85644531 C806.91332281 1102.13518905 788.78266488 1122.57232325 768 1139 C766.89119706 1139.91942984 765.78452842 1140.84143793 764.6796875 1141.765625 C697.02202974 1197.90966016 605.67077355 1219.25189196 519.9375 1226.6875 C518.89157684 1226.77890762 518.89157684 1226.77890762 517.82452393 1226.87216187 C495.72553283 1228.7748996 473.67492964 1229.20666829 451.5 1229.1875 C450.80684692 1229.18723312 450.11369385 1229.18696625 449.39953613 1229.18669128 C426.8812884 1229.17582841 404.45102506 1228.87060224 382 1227 C380.87434631 1226.90878876 380.87434631 1226.90878876 379.72595215 1226.81573486 C301.9117157 1220.47927593 226.01239321 1202.10718816 156 1167 C154.80262207 1166.40324463 154.80262207 1166.40324463 153.58105469 1165.79443359 C129.47308973 1153.69850598 107.23163249 1138.28776097 87.328125 1120.10546875 C85.27570017 1118.24933287 83.18154291 1116.46629008 81.0625 1114.6875 C71.74238433 1106.52772002 63.90849828 1096.77267947 56.45654297 1086.92333984 C55.46928963 1085.61968886 54.47591482 1084.32065521 53.47705078 1083.02587891 C39.42610815 1064.7539613 28.04081852 1044.61417883 20 1023 C19.59128662 1021.92588867 19.59128662 1021.92588867 19.17431641 1020.83007812 C-4.39593945 958.10850625 1.43737297 881.47488746 0.45240784 815.46427917 C0.44184615 814.76585701 0.43128447 814.06743485 0.42040273 813.34784838 C-0.10770196 778.2534457 -0.13853203 743.16109659 -0.11761136 708.06341598 C-0.11221248 698.63719061 -0.11295764 689.21096758 -0.11374746 679.78474104 C-0.11504399 662.40597979 -0.1117875 645.02722242 -0.10573006 627.6484623 C-0.09976739 610.49678846 -0.09595503 593.34511625 -0.09487724 576.19344139 C-0.0948085 575.11808281 -0.09473976 574.04272422 -0.09466894 572.93477901 C-0.0943305 567.47128425 -0.09402916 562.0077895 -0.09374207 556.54429474 C-0.09165405 518.06981194 -0.08495179 479.59533123 -0.07543945 441.12084961 C-0.06622198 403.79532889 -0.05917162 366.46980874 -0.05493164 329.14428711 C-0.054661 326.78804566 -0.05439029 324.43180422 -0.05411953 322.07556278 C-0.05193004 302.92325591 -0.04988775 283.77094903 -0.04788104 264.61864214 C-0.03853357 176.41242611 -0.01845275 88.20621556 0 0 Z " fill="#FFFFFF" transform="translate(11252,4729)"/>
<path d="M0 0 C473.01911098 0 473.01911098 0 518.375 3.8125 C519.3945578 3.89614807 520.4141156 3.97979614 521.46456909 4.065979 C581.60341527 9.03325042 642.86495123 18.2187083 698 44 C698.7125293 44.33209473 699.42505859 44.66418945 700.15917969 45.00634766 C720.36524428 54.5315225 738.29744963 66.0702212 754.46875 81.53613281 C755.50568341 82.52743586 756.54751769 83.51363333 757.59375 84.49511719 C770.25280709 96.40102124 780.36847188 109.93109271 789 125 C789.65484375 126.12277344 790.3096875 127.24554688 790.984375 128.40234375 C815.48041334 171.52867009 818.88609923 224.65611568 821.09667969 273.20239258 C821.13907257 274.11716735 821.18146544 275.03194213 821.22514296 275.97443736 C822.11797817 295.59999777 822.29749548 315.20273752 822.26865101 334.84564948 C822.2634194 339.56302043 822.26832726 344.28038552 822.27142334 348.99775696 C822.27501106 356.89231809 822.27039959 364.78684119 822.26074219 372.68139648 C822.24982591 381.70723136 822.2534275 390.73297602 822.264395 399.75880879 C822.27356884 407.63527767 822.27470584 415.51171996 822.26951766 423.38819247 C822.2664579 428.03763063 822.26581791 432.68702685 822.27259064 437.33646202 C822.30779614 465.28527314 821.74592746 493.1736196 818.1875 520.9375 C818.06202789 521.93964539 818.06202789 521.93964539 817.934021 522.96203613 C812.50154015 566.10626117 801.53442569 607.74389857 771 640 C769.78763672 641.30904297 769.78763672 641.30904297 768.55078125 642.64453125 C708.26445134 705.63428403 605.08518385 714.89574081 523 719 C476.47 719 429.94 719 382 719 C382 879.05 382 1039.1 382 1204 C255.94 1204 129.88 1204 0 1204 C0 806.68 0 409.36 0 0 Z M382 206 C382 306.98 382 407.96 382 512 C434.98458872 514.4056998 434.98458872 514.4056998 481.9375 492.25 C491.11172604 482.24175342 495.36548299 469.78737299 498.1875 456.75 C498.3424292 456.03714844 498.4973584 455.32429688 498.65698242 454.58984375 C499.16417961 452.06738674 499.58504437 449.53940078 500 447 C500.16971313 445.98680191 500.33942627 444.97360382 500.51428223 443.92970276 C502.627727 429.04818709 502.31159929 414.04573716 502.30158257 399.0494287 C502.30049994 395.83195299 502.30542875 392.61449646 502.310188 389.39702493 C502.32121847 381.79258159 502.32175732 374.18818767 502.31567383 366.58374023 C502.30963979 358.79762652 502.32194553 351.01169378 502.3432439 343.22561091 C502.36098602 336.48614629 502.36684159 329.74673861 502.36360615 323.00725156 C502.36181307 319.00611354 502.36422774 315.00510463 502.37832069 311.00398827 C502.81425963 265.94966551 502.81425963 265.94966551 482.41796875 227.08984375 C456.79942747 204.94780888 412.45882642 206.95183833 382 206 Z " fill="#FFFFFF" transform="translate(12271,4729)"/>
<path d="M0 0 C209.88 0 419.76 0 636 0 C636 79.53 636 159.06 636 241 C552.18 241 468.36 241 382 241 C382 316.24 382 391.48 382 469 C460.54 469 539.08 469 620 469 C620 544.57 620 620.14 620 698 C541.46 698 462.92 698 382 698 C382 785.12 382 872.24 382 962 C474.07 962 566.14 962 661 962 C661 1041.86 661 1121.72 661 1204 C442.87 1204 224.74 1204 0 1204 C0 806.68 0 409.36 0 0 Z " fill="#FFFFFF" transform="translate(8460,4729)"/>
<path d="M0 0 C0.92569794 0.00215515 1.85139587 0.0043103 2.80514526 0.00653076 C16.86581723 0.05900444 30.61931784 0.48433503 44.4375 3.3125 C45.43942383 3.51649414 46.44134766 3.72048828 47.47363281 3.93066406 C89.49120893 12.76631597 129.64006577 31.83086269 160.7734375 61.765625 C162.8982255 63.79694726 165.0413944 65.70159409 167.3125 67.5625 C170.311501 70.10180012 172.8494626 72.89391904 175.3828125 75.89453125 C176.90856466 77.69004568 178.47207256 79.45361809 180.0546875 81.19921875 C193.00951967 95.6066422 203.51536334 112.14547015 212.4375 129.3125 C212.76911133 129.93914551 213.10072266 130.56579102 213.44238281 131.21142578 C240.99051591 183.8801301 244.76784249 249.29380478 227.83984375 305.78125 C219.9569028 330.89671957 208.16829866 355.18393357 192.4375 376.3125 C191.99970215 376.90579102 191.5619043 377.49908203 191.11083984 378.11035156 C179.14496994 394.20375941 165.13871739 408.85769817 149.4375 421.3125 C147.93509766 422.52292969 147.93509766 422.52292969 146.40234375 423.7578125 C98.08098798 462.24069787 34.79381647 478.65216385 -26.25 472.125 C-70.49477437 466.87910995 -111.72032829 450.15763914 -146.5625 422.3125 C-147.10890137 421.88179199 -147.65530273 421.45108398 -148.21826172 421.00732422 C-162.8095215 409.4355637 -176.36574191 396.03234896 -187.34765625 380.97607422 C-188.56820603 379.30468631 -189.81352809 377.65412497 -191.0625 376.00390625 C-206.53219619 355.28012334 -217.78803733 331.9075288 -225.5625 307.3125 C-225.79952637 306.56677734 -226.03655273 305.82105469 -226.28076172 305.05273438 C-230.23174811 292.38476089 -232.67644438 279.4377325 -234.5625 266.3125 C-234.72153809 265.20588013 -234.72153809 265.20588013 -234.88378906 264.0769043 C-242.45068033 201.51444401 -223.62070953 138.9835868 -185.359375 89.4609375 C-179.45085554 82.08591501 -173.05378533 75.17230728 -166.5625 68.3125 C-165.92441406 67.631875 -165.28632812 66.95125 -164.62890625 66.25 C-159.68095237 61.12406217 -154.13880067 56.73159171 -148.5625 52.3125 C-147.53769531 51.49394531 -146.51289062 50.67539062 -145.45703125 49.83203125 C-103.95639444 17.03550466 -52.78066942 -0.22144162 0 0 Z " fill="#ED1C24" transform="translate(13686.5625,5470.6875)"/>
</svg>
